<?xml version='1.0' encoding='UTF-8'?>
<svg viewBox="-2 -2.0525 32 32" xmlns="http://www.w3.org/2000/svg" xmlns:xlink="http://www.w3.org/1999/xlink">
  <g id="Layer_1" transform="translate(-3.0107, -1.0059)">
    <g transform="matrix(1.00358462333679, 0, 0, 1.00358462333679, 0, 0)">
      <g>
        <path d="M27.1, 19.2C27.2, 19 27.3, 18.8 27.3, 18.5C27.4, 18.3 27.4, 18.1 27.5, 18L30.9, 17L30.9, 13L27.5, 12C27.4, 11.8 27.4, 11.6 27.3, 11.5C27.2, 11.3 27.2, 11 27.1, 10.8C27, 10.6 26.9, 10.4 26.8, 10.2C26.7, 10 26.6, 9.9 26.6, 9.7L28.3, 6.6L25.5, 3.8L22.4, 5.5C22.2, 5.4 22.1, 5.3 21.9, 5.3C21.7, 5.2 21.5, 5.1 21.3, 5C21.1, 4.9 20.9, 4.8 20.6, 4.8C20.4, 4.7 20.3, 4.7 20.1, 4.6L19, 1L15, 1L14, 4.4C13.8, 4.5 13.6, 4.5 13.5, 4.6C13.3, 4.7 13, 4.7 12.8, 4.8C12.6, 4.9 12.4, 5 12.2, 5.1C12, 5.2 11.9, 5.3 11.7, 5.3L8.5, 3.7L5.7, 6.5L7.4, 9.6C7.3, 9.8 7.2, 10 7.2, 10.2C7.1, 10.4 7, 10.6 6.9, 10.8C6.8, 11 6.7, 11.2 6.7, 11.5C6.6, 11.7 6.6, 11.8 6.5, 12L3, 13L3, 17L6.4, 18C6.5, 18.2 6.5, 18.4 6.6, 18.5C6.7, 18.7 6.7, 18.9 6.8, 19.2C6.9, 19.4 7, 19.6 7.1, 19.8C7.2, 20 7.3, 20.1 7.3, 20.3L5.6, 23.4L8.4, 26.2L11.5, 24.5C11.7, 24.6 11.8, 24.7 12, 24.7C12.2, 24.8 12.4, 24.9 12.6, 25C12.8, 25.1 13, 25.2 13.3, 25.2C13.5, 25.3 13.6, 25.3 13.8, 25.4L14.8, 28.8L18.8, 28.8L19.8, 25.4C20, 25.3 20.2, 25.3 20.3, 25.2C20.5, 25.1 20.8, 25.1 21, 25C21.2, 24.9 21.4, 24.8 21.6, 24.7C21.8, 24.6 21.9, 24.5 22.1, 24.5L25.2, 26.2L28, 23.4L26.3, 20.3C26.4, 20.1 26.5, 20 26.5, 19.8C26.9, 19.6 27.1, 19.4 27.1, 19.2zM17, 22C13.1, 22 10, 18.9 10, 15C10, 11.1 13.1, 8 17, 8C20.9, 8 24, 11.1 24, 15C24, 18.9 20.9, 22 17, 22z" />
      </g>
    </g>
  </g>
  <g id="Layer_1" transform="translate(-3.01070057220459, -1.00590015258789)">
    <g transform="matrix(1.00358462333679, 0, 0, 1.00358462333679, 0, 0)">
      <g>
        <circle cx="17" cy="15" r="4" />
      </g>
    </g>
  </g>
</svg>